<svg viewBox="0 0 24 24" fill="none" xmlns="http://www.w3.org/2000/svg">
<path fill-rule="evenodd" clip-rule="evenodd" d="M12.3515 3.95193C12.5765 3.72696 12.8817 3.60059 13.1999 3.60059C13.5181 3.60059 13.8232 3.72696 14.0483 3.95193L21.2483 11.1519C21.4732 11.377 21.5996 11.6821 21.5996 12.0003C21.5996 12.3185 21.4732 12.6237 21.2483 12.8487L14.0483 20.0487C13.8219 20.2673 13.5188 20.3883 13.2042 20.3855C12.8895 20.3828 12.5886 20.2566 12.3661 20.0341C12.1436 19.8116 12.0174 19.5107 12.0147 19.196C12.0119 18.8814 12.1329 18.5783 12.3515 18.3519L17.5031 13.2003L3.59987 13.2003C3.28161 13.2003 2.97638 13.0739 2.75134 12.8489C2.5263 12.6238 2.39987 12.3186 2.39987 12.0003C2.39987 11.6821 2.5263 11.3768 2.75134 11.1518C2.97638 10.9268 3.28161 10.8003 3.59987 10.8003L17.5031 10.8003L12.3515 5.64873C12.1265 5.4237 12.0001 5.11853 12.0001 4.80033C12.0001 4.48213 12.1265 4.17696 12.3515 3.95193V3.95193Z" fill="currentColor"/>
</svg>
