<svg viewBox="0 0 24 24" fill="none" xmlns="http://www.w3.org/2000/svg">
<path fill-rule="evenodd" clip-rule="evenodd" d="M3.95144 11.6485C3.72648 11.4235 3.6001 11.1183 3.6001 10.8001C3.6001 10.4819 3.72648 10.1768 3.95144 9.95173L11.1514 2.75173C11.3765 2.52677 11.6816 2.40039 11.9998 2.40039C12.318 2.40039 12.6232 2.52677 12.8482 2.75173L20.0482 9.95173C20.2668 10.1781 20.3878 10.4812 20.3851 10.7958C20.3823 11.1105 20.2561 11.4114 20.0336 11.6339C19.8111 11.8564 19.5102 11.9826 19.1955 11.9853C18.8809 11.9881 18.5778 11.8671 18.3514 11.6485L13.1998 6.49693V20.4001C13.1998 20.7184 13.0734 21.0236 12.8484 21.2487C12.6233 21.4737 12.3181 21.6001 11.9998 21.6001C11.6816 21.6001 11.3764 21.4737 11.1513 21.2487C10.9263 21.0236 10.7998 20.7184 10.7998 20.4001V6.49693L5.64824 11.6485C5.42321 11.8735 5.11804 11.9999 4.79984 11.9999C4.48164 11.9999 4.17647 11.8735 3.95144 11.6485V11.6485Z" fill="currentColor"/>
</svg>
