<svg viewBox="0 0 24 24" fill="none" xmlns="http://www.w3.org/2000/svg">
<path fill-rule="evenodd" clip-rule="evenodd" d="M11.6485 20.0481C11.4235 20.273 11.1183 20.3994 10.8001 20.3994C10.4819 20.3994 10.1768 20.273 9.95173 20.0481L2.75173 12.8481C2.52677 12.623 2.40039 12.3179 2.40039 11.9997C2.40039 11.6815 2.52677 11.3763 2.75173 11.1513L9.95173 3.95127C10.1781 3.73268 10.4812 3.61172 10.7958 3.61446C11.1104 3.61719 11.4114 3.74339 11.6339 3.96588C11.8564 4.18837 11.9826 4.48935 11.9853 4.80399C11.9881 5.11862 11.8671 5.42174 11.6485 5.64807L6.49693 10.7997L20.4001 10.7997C20.7184 10.7997 21.0236 10.9261 21.2487 11.1511C21.4737 11.3762 21.6001 11.6814 21.6001 11.9997C21.6001 12.3179 21.4737 12.6232 21.2487 12.8482C21.0236 13.0732 20.7184 13.1997 20.4001 13.1997L6.49693 13.1997L11.6485 18.3513C11.8735 18.5763 11.9999 18.8815 11.9999 19.1997C11.9999 19.5179 11.8735 19.823 11.6485 20.0481V20.0481Z" fill="currentColor"/>
</svg>
