<svg viewBox="0 0 24 24" fill="none" xmlns="http://www.w3.org/2000/svg">
<path fill-rule="evenodd" clip-rule="evenodd" d="M6.083 11H8.029C8.118 9.454 8.412 8.03 8.866 6.882C8.13501 7.32992 7.50842 7.92919 7.02838 8.6395C6.54834 9.34982 6.22598 10.1547 6.083 11ZM12 4C9.87827 4 7.84344 4.84285 6.34315 6.34315C4.84285 7.84344 4 9.87827 4 12C4 14.1217 4.84285 16.1566 6.34315 17.6569C7.84344 19.1571 9.87827 20 12 20C14.1217 20 16.1566 19.1571 17.6569 17.6569C19.1571 16.1566 20 14.1217 20 12C20 9.87827 19.1571 7.84344 17.6569 6.34315C16.1566 4.84285 14.1217 4 12 4V4ZM12 6C11.924 6 11.768 6.032 11.535 6.262C11.297 6.496 11.038 6.885 10.798 7.444C10.409 8.351 10.125 9.586 10.032 11H13.968C13.875 9.586 13.591 8.351 13.202 7.444C12.962 6.884 12.702 6.496 12.465 6.262C12.232 6.032 12.076 6 12 6ZM15.971 11C15.882 9.454 15.588 8.03 15.134 6.882C15.865 7.32992 16.4916 7.92919 16.9716 8.6395C17.4517 9.34982 17.774 10.1547 17.917 11H15.971ZM13.968 13H10.032C10.125 14.414 10.409 15.649 10.798 16.556C11.038 17.116 11.298 17.504 11.535 17.738C11.768 17.968 11.924 18 12 18C12.076 18 12.232 17.968 12.465 17.738C12.703 17.504 12.963 17.115 13.202 16.556C13.591 15.649 13.875 14.414 13.968 13ZM15.134 17.118C15.588 15.971 15.882 14.546 15.971 13H17.917C17.774 13.8453 17.4517 14.6502 16.9716 15.3605C16.4916 16.0708 15.865 16.6701 15.134 17.118V17.118ZM8.866 17.118C8.412 15.97 8.118 14.546 8.03 13H6.083C6.22598 13.8453 6.54834 14.6502 7.02838 15.3605C7.50842 16.0708 8.13501 16.6701 8.866 17.118V17.118Z" fill="currentColor"/>
</svg>
