<svg viewBox="0 0 48 48" fill="none" xmlns="http://www.w3.org/2000/svg">
<path fill-rule="evenodd" clip-rule="evenodd" d="M23.995 8.00977C28.3389 8.00977 28.8836 8.02818 30.5897 8.10602C32.2921 8.18367 33.4548 8.45409 34.4722 8.84951C35.524 9.25821 36.4161 9.80513 37.3054 10.6943C38.1946 11.5836 38.7414 12.4756 39.1502 13.5274C39.5456 14.5448 39.816 15.7075 39.8937 17.41C39.9715 19.1161 39.9899 19.6608 39.9899 24.0048C39.9899 28.3487 39.9715 28.8934 39.8937 30.5994C39.816 32.3019 39.5456 33.4646 39.1502 34.482C38.7414 35.5338 38.1946 36.4258 37.3054 37.3151C36.4161 38.2043 35.524 38.7512 34.4722 39.16C33.4548 39.5554 32.2921 39.8258 30.5897 39.9034C28.8836 39.9813 28.3389 39.9997 23.995 39.9997C19.651 39.9997 19.1063 39.9813 17.4003 39.9034C15.6978 39.8258 14.535 39.5554 13.5176 39.16C12.4658 38.7512 11.5738 38.2043 10.6846 37.3151C9.79536 36.4258 9.24842 35.5338 8.83972 34.482C8.44429 33.4646 8.1739 32.3019 8.09625 30.5994C8.01841 28.8934 8 28.3487 8 24.0048C8 19.6608 8.01841 19.1161 8.09625 17.41C8.1739 15.7075 8.44429 14.5448 8.83972 13.5274C9.24842 12.4756 9.79536 11.5836 10.6846 10.6943C11.5738 9.80513 12.4658 9.25821 13.5176 8.84951C14.535 8.45409 15.6978 8.18367 17.4003 8.10602C19.1063 8.02818 19.651 8.00977 23.995 8.00977ZM30.4583 10.985C28.7717 10.9081 28.2658 10.8917 23.995 10.8917C19.7241 10.8917 19.2182 10.9081 17.5316 10.985C15.9721 11.0561 15.1252 11.3167 14.5616 11.5357C13.815 11.8259 13.2822 12.1725 12.7225 12.7322C12.1627 13.2919 11.8161 13.8248 11.5259 14.5714C11.3069 15.135 11.0463 15.9819 10.9752 17.5414C10.8983 19.228 10.882 19.7339 10.882 24.0048C10.882 28.2755 10.8983 28.7815 10.9752 30.4681C11.0463 32.0275 11.3069 32.8745 11.5259 33.4381C11.8161 34.1847 12.1628 34.7175 12.7225 35.2772C13.2822 35.8369 13.815 36.1835 14.5616 36.4737C15.1252 36.6928 15.9721 36.9533 17.5316 37.0244C19.218 37.1014 19.7238 37.1177 23.995 37.1177C28.2661 37.1177 28.772 37.1014 30.4583 37.0244C32.0178 36.9533 32.8647 36.6928 33.4283 36.4737C34.1749 36.1835 34.7078 35.8369 35.2675 35.2772C35.8272 34.7175 36.1738 34.1847 36.4639 33.4381C36.683 32.8745 36.9435 32.0275 37.0146 30.4681C37.0916 28.7815 37.1079 28.2755 37.1079 24.0048C37.1079 19.7339 37.0916 19.228 37.0146 17.5414C36.9435 15.9819 36.683 15.135 36.4639 14.5714C36.1738 13.8248 35.8272 13.2919 35.2675 12.7322C34.7078 12.1725 34.1749 11.8259 33.4283 11.5357C32.8647 11.3167 32.0178 11.0561 30.4583 10.985ZM23.995 29.3364C26.9396 29.3364 29.3266 26.9493 29.3266 24.0048C29.3266 21.0601 26.9396 18.6731 23.995 18.6731C21.0504 18.6731 18.6633 21.0601 18.6633 24.0048C18.6633 26.9493 21.0504 29.3364 23.995 29.3364ZM23.995 15.7911C28.5312 15.7911 32.2086 19.4684 32.2086 24.0048C32.2086 28.541 28.5312 32.2183 23.995 32.2183C19.4587 32.2183 15.7813 28.541 15.7813 24.0048C15.7813 19.4684 19.4587 15.7911 23.995 15.7911ZM34.4525 15.4666C34.4525 16.5267 33.5931 17.386 32.5331 17.386C31.4731 17.386 30.6137 16.5267 30.6137 15.4666C30.6137 14.4065 31.4731 13.5472 32.5331 13.5472C33.5931 13.5472 34.4525 14.4065 34.4525 15.4666Z" fill="currentColor"/>
</svg>
