<svg viewBox="0 0 196 56" fill="none" xmlns="http://www.w3.org/2000/svg">
<path fill-rule="evenodd" clip-rule="evenodd" d="M8.45484 13.9133V5.87345H16.3712C17.1251 5.87345 17.8431 5.93765 18.5253 6.06603C19.2433 6.16231 19.8716 6.35488 20.4101 6.64374C20.9486 6.9326 21.3794 7.33379 21.7026 7.84732C22.0257 8.36084 22.1872 9.0188 22.1872 9.82118C22.1872 11.2655 21.7026 12.3086 20.7332 12.9505C19.7639 13.5924 18.5253 13.9133 17.0174 13.9133H8.45484ZM0 0V34.3741H18.633C20.3562 34.3741 22.0257 34.1816 23.6413 33.7964C25.2927 33.4113 26.7467 32.8175 28.0033 32.0151C29.2958 31.2127 30.319 30.1857 31.0729 28.934C31.8268 27.6502 32.2038 26.1417 32.2038 24.4085C32.2038 22.2581 31.6114 20.4287 30.4267 18.9202C29.2778 17.3796 27.5186 16.3044 25.1491 15.6946C26.8724 14.9564 28.1649 14.0096 29.0265 12.8542C29.924 11.6988 30.3728 10.2545 30.3728 8.52132C30.3728 6.91655 30.0677 5.56855 29.4573 4.4773C28.8829 3.38606 28.0572 2.51949 26.9801 1.87758C25.9031 1.20358 24.6106 0.722146 23.1027 0.433288C21.5949 0.144429 19.9254 0 18.0944 0H0ZM8.45484 28.5007V19.0646H17.6636C19.4946 19.0646 20.9666 19.4498 22.0795 20.2201C23.1925 20.9583 23.749 22.21 23.749 23.9752C23.749 24.8739 23.5694 25.6121 23.2104 26.1898C22.8873 26.7675 22.4385 27.2329 21.8641 27.586C21.2897 27.9069 20.6255 28.1476 19.8716 28.3081C19.1176 28.4365 18.3278 28.5007 17.5021 28.5007H8.45484ZM33.5556 17.1389C33.6633 15.5342 34.1121 14.2022 34.9019 13.1431C35.6917 12.0839 36.697 11.2334 37.9176 10.5915C39.1383 9.94956 40.5026 9.50023 42.0104 9.24347C43.5542 8.95461 45.098 8.81018 46.6417 8.81018C48.0419 8.81018 49.46 8.90646 50.8961 9.09904C52.3322 9.25951 53.6426 9.59651 54.8273 10.11C56.0121 10.6236 56.9814 11.3457 57.7354 12.2765C58.4893 13.1751 58.8663 14.3787 58.8663 15.8872V28.8377C58.8663 29.961 58.9381 31.0362 59.0817 32.0633C59.2253 33.0903 59.4766 33.8606 59.8356 34.3741H52.0808C51.9372 33.989 51.8116 33.6038 51.7039 33.2187C51.6321 32.8015 51.5782 32.3842 51.5423 31.967C50.3217 33.0903 48.8856 33.8767 47.2341 34.326C45.5826 34.7753 43.8953 35 42.172 35C40.8436 35 39.605 34.8556 38.4562 34.5667C37.3073 34.2779 36.3021 33.8285 35.4404 33.2187C34.5788 32.6089 33.8966 31.8386 33.394 30.9078C32.9273 29.9771 32.6939 28.8698 32.6939 27.586C32.6939 26.1738 32.9632 25.0183 33.5017 24.1197C34.0762 23.1889 34.7942 22.4507 35.6558 21.9051C36.5534 21.3595 37.5586 20.9583 38.6716 20.7015C39.8204 20.4127 40.9693 20.188 42.1181 20.0275C43.267 19.867 44.3979 19.7387 45.5108 19.6424C46.6238 19.5461 47.6111 19.4016 48.4727 19.2091C49.3344 19.0165 50.0165 18.7437 50.5191 18.3906C51.0217 18.0055 51.2551 17.4599 51.2192 16.7538C51.2192 16.0156 51.0756 15.4379 50.7884 15.0206C50.5371 14.5713 50.1781 14.2343 49.7113 14.0096C49.2805 13.7529 48.7599 13.5924 48.1496 13.5282C47.5752 13.4319 46.9469 13.3838 46.2648 13.3838C44.7569 13.3838 43.5722 13.6726 42.7105 14.2503C41.8489 14.8281 41.3462 15.7909 41.2026 17.1389H33.5556ZM51.2192 22.1939C50.8961 22.4507 50.4832 22.6593 49.9806 22.8198C49.5139 22.9482 48.9933 23.0605 48.4189 23.1568C47.8804 23.2531 47.3059 23.3333 46.6956 23.3975C46.0853 23.4617 45.4749 23.542 44.8646 23.6382C44.2902 23.7345 43.7158 23.8629 43.1413 24.0234C42.6028 24.1839 42.1181 24.4085 41.6873 24.6974C41.2924 24.9541 40.9693 25.2911 40.718 25.7084C40.4667 26.1256 40.341 26.6552 40.341 27.2971C40.341 27.9069 40.4667 28.4204 40.718 28.8377C40.9693 29.2549 41.3103 29.5919 41.7412 29.8487C42.172 30.0734 42.6746 30.2338 43.249 30.3301C43.8235 30.4264 44.4158 30.4746 45.0262 30.4746C46.534 30.4746 47.7008 30.2499 48.5266 29.8005C49.3523 29.3512 49.9626 28.8216 50.3576 28.2118C50.7525 27.5699 50.9858 26.928 51.0577 26.2861C51.1654 25.6442 51.2192 25.1307 51.2192 24.7455V22.1939ZM69.4331 0V5.63274H61.7861V0H69.4331ZM61.7861 34.3741V9.48418H69.4331V34.3741H61.7861ZM72.4388 0V34.3741H80.0858V0H72.4388ZM83.8993 13.1431C83.1094 14.2022 82.6606 15.5342 82.5529 17.1389H90.2C90.3436 15.7909 90.8462 14.8281 91.7079 14.2503C92.5695 13.6726 93.7543 13.3838 95.2621 13.3838C95.9443 13.3838 96.5726 13.4319 97.147 13.5282C97.7573 13.5924 98.2779 13.7529 98.7087 14.0096C99.1754 14.2343 99.5344 14.5713 99.7858 15.0206C100.073 15.4379 100.217 16.0156 100.217 16.7538C100.252 17.4599 100.019 18.0055 99.5165 18.3906C99.0139 18.7437 98.3317 19.0165 97.4701 19.2091C96.6085 19.4016 95.6212 19.5461 94.5082 19.6424C93.3953 19.7387 92.2644 19.867 91.1155 20.0275C89.9666 20.188 88.8178 20.4127 87.6689 20.7015C86.556 20.9583 85.5507 21.3595 84.6532 21.9051C83.7916 22.4507 83.0735 23.1889 82.4991 24.1197C81.9606 25.0183 81.6913 26.1738 81.6913 27.586C81.6913 28.8698 81.9247 29.9771 82.3914 30.9078C82.894 31.8386 83.5761 32.6089 84.4378 33.2187C85.2994 33.8285 86.3047 34.2779 87.4535 34.5667C88.6024 34.8556 89.841 35 91.1693 35C92.8926 35 94.58 34.7753 96.2315 34.326C97.883 33.8767 99.319 33.0903 100.54 31.967C100.576 32.3842 100.629 32.8015 100.701 33.2187C100.809 33.6038 100.935 33.989 101.078 34.3741H108.833C108.474 33.8606 108.223 33.0903 108.079 32.0633C107.935 31.0362 107.864 29.961 107.864 28.8377V15.8872C107.864 14.3787 107.487 13.1751 106.733 12.2765C105.979 11.3457 105.009 10.6236 103.825 10.11C102.64 9.59651 101.33 9.25951 99.8935 9.09904C98.4574 8.90646 97.0393 8.81018 95.6391 8.81018C94.0953 8.81018 92.5516 8.95461 91.0078 9.24347C89.4999 9.50023 88.1357 9.94956 86.915 10.5915C85.6943 11.2334 84.6891 12.0839 83.8993 13.1431ZM98.978 22.8198C99.4806 22.6593 99.8935 22.4507 100.217 22.1939V24.7455C100.217 25.1307 100.163 25.6442 100.055 26.2861C99.9832 26.928 99.7499 27.5699 99.3549 28.2118C98.96 28.8216 98.3497 29.3512 97.5239 29.8005C96.6982 30.2499 95.5314 30.4746 94.0235 30.4746C93.4132 30.4746 92.8208 30.4264 92.2464 30.3301C91.672 30.2338 91.1694 30.0734 90.7385 29.8487C90.3077 29.5919 89.9666 29.2549 89.7153 28.8377C89.464 28.4204 89.3384 27.9069 89.3384 27.2971C89.3384 26.6552 89.464 26.1256 89.7153 25.7084C89.9666 25.2911 90.2898 24.9541 90.6847 24.6974C91.1155 24.4085 91.6002 24.1839 92.1387 24.0234C92.7131 23.8629 93.2876 23.7345 93.862 23.6382C94.4723 23.542 95.0826 23.4617 95.693 23.3975C96.3033 23.3333 96.8777 23.2531 97.4162 23.1568C97.9907 23.0605 98.5113 22.9482 98.978 22.8198ZM111.053 0H127.101C128.788 0 130.368 0.160476 131.84 0.481429C133.312 0.770288 134.604 1.26777 135.717 1.97387C136.83 2.64787 137.692 3.54654 138.302 4.66988C138.948 5.79321 139.271 7.18936 139.271 8.85832C139.271 11.1692 138.535 13.127 137.063 14.7318C135.627 16.3044 133.617 17.2834 131.032 17.6685V17.7648C132.791 17.9574 134.173 18.3746 135.179 19.0165C136.22 19.6584 136.992 20.4447 137.494 21.3755C137.997 22.3063 138.32 23.3333 138.464 24.4567C138.607 25.58 138.679 26.7033 138.679 27.8267V29.8005C138.679 30.4425 138.715 31.0523 138.787 31.63C138.859 32.1756 138.966 32.6891 139.11 33.1706C139.289 33.652 139.523 34.0532 139.81 34.3741H137.171C136.669 33.5718 136.381 32.641 136.31 31.5818C136.274 30.4906 136.256 29.3673 136.256 28.2118C136.256 27.0564 136.202 25.917 136.094 24.7937C135.986 23.6382 135.645 22.6112 135.071 21.7125C134.497 20.8138 133.581 20.0917 132.324 19.5461C131.104 19.0005 129.363 18.7276 127.101 18.7276H113.422V34.3741H111.053V0ZM127.101 16.8982C128.501 16.8982 129.793 16.7538 130.978 16.4649C132.199 16.144 133.24 15.6625 134.102 15.0206C134.963 14.3787 135.645 13.5603 136.148 12.5653C136.651 11.5704 136.902 10.3829 136.902 9.00275C136.902 7.71894 136.633 6.62769 136.094 5.72902C135.556 4.79826 134.838 4.04402 133.94 3.4663C133.042 2.88858 132.001 2.47134 130.817 2.21458C129.632 1.95782 128.393 1.82944 127.101 1.82944H113.422V16.8982H127.101ZM141.85 0V4.95874H143.896V0H141.85ZM141.85 9.62861V34.3741H143.896V9.62861H141.85ZM168.021 17.2834C167.913 16.1921 167.59 15.2293 167.051 14.3948C166.549 13.5603 165.885 12.8702 165.059 12.3246C164.233 11.779 163.264 11.3618 162.151 11.0729C161.074 10.784 159.907 10.6396 158.65 10.6396C156.927 10.6396 155.401 10.9606 154.073 11.6025C152.744 12.2123 151.632 13.0468 150.734 14.1059C149.836 15.133 149.154 16.3205 148.688 17.6685C148.221 18.9844 147.988 20.3485 147.988 21.7607C147.988 23.4296 148.203 24.9702 148.634 26.3824C149.065 27.7946 149.729 29.0303 150.626 30.0894C151.524 31.1165 152.637 31.9188 153.965 32.4966C155.294 33.0743 156.855 33.3631 158.65 33.3631C159.943 33.3631 161.128 33.1706 162.205 32.7854C163.318 32.4003 164.287 31.8707 165.113 31.1967C165.974 30.5227 166.674 29.7203 167.213 28.7895C167.751 27.8267 168.11 26.7836 168.29 25.6602H170.336C170.121 27.1366 169.672 28.4525 168.99 29.608C168.308 30.7634 167.446 31.7423 166.405 32.5447C165.364 33.315 164.179 33.9088 162.851 34.326C161.522 34.7432 160.122 34.9519 158.65 34.9519C156.389 34.9519 154.45 34.5988 152.834 33.8927C151.255 33.1545 149.944 32.1756 148.903 30.956C147.898 29.7364 147.144 28.3402 146.641 26.7675C146.175 25.1628 145.941 23.4938 145.941 21.7607C145.941 20.0275 146.21 18.3906 146.749 16.8501C147.323 15.3095 148.149 13.9615 149.226 12.8061C150.303 11.6506 151.632 10.7359 153.211 10.0619C154.791 9.3879 156.604 9.05089 158.65 9.05089C160.158 9.05089 161.558 9.22742 162.851 9.58047C164.179 9.90142 165.346 10.3989 166.351 11.0729C167.392 11.7469 168.236 12.6135 168.882 13.6726C169.529 14.6997 169.923 15.9033 170.067 17.2834H168.021ZM171.389 17.0426C170.851 18.5832 170.582 20.2361 170.582 22.0014C170.582 23.7666 170.851 25.4356 171.389 27.0083C171.964 28.5809 172.79 29.961 173.867 31.1486C174.944 32.304 176.272 33.2348 177.852 33.9409C179.431 34.6149 181.244 34.9519 183.291 34.9519C185.337 34.9519 187.15 34.6149 188.73 33.9409C190.31 33.2348 191.638 32.304 192.715 31.1486C193.792 29.961 194.6 28.5809 195.138 27.0083C195.713 25.4356 196 23.7666 196 22.0014C196 20.2361 195.713 18.5832 195.138 17.0426C194.6 15.47 193.792 14.0899 192.715 12.9023C191.638 11.7148 190.31 10.784 188.73 10.11C187.15 9.40394 185.337 9.05089 183.291 9.05089C181.244 9.05089 179.431 9.40394 177.852 10.11C176.272 10.784 174.944 11.7148 173.867 12.9023C172.79 14.0899 171.964 15.47 171.389 17.0426ZM173.328 26.2861C172.861 24.906 172.628 23.4778 172.628 22.0014C172.628 20.525 172.861 19.1128 173.328 17.7648C173.795 16.3847 174.477 15.1651 175.374 14.1059C176.272 13.0468 177.385 12.2123 178.713 11.6025C180.042 10.9606 181.568 10.6396 183.291 10.6396C185.014 10.6396 186.54 10.9606 187.868 11.6025C189.197 12.2123 190.31 13.0468 191.207 14.1059C192.105 15.1651 192.787 16.3847 193.254 17.7648C193.72 19.1128 193.954 20.525 193.954 22.0014C193.954 23.4778 193.72 24.906 193.254 26.2861C192.787 27.6341 192.105 28.8377 191.207 29.8968C190.31 30.956 189.197 31.8065 187.868 32.4484C186.54 33.0582 185.014 33.3631 183.291 33.3631C181.568 33.3631 180.042 33.0582 178.713 32.4484C177.385 31.8065 176.272 30.956 175.374 29.8968C174.477 28.8377 173.795 27.6341 173.328 26.2861ZM115.593 47.8145C115.593 47.342 115.654 46.8783 115.776 46.4233C115.899 45.9595 116.091 45.5439 116.354 45.1764C116.616 44.8089 116.953 44.5158 117.364 44.297C117.776 44.0695 118.266 43.9558 118.834 43.9558C119.403 43.9558 119.893 44.0695 120.304 44.297C120.716 44.5158 121.053 44.8089 121.315 45.1764C121.578 45.5439 121.77 45.9595 121.893 46.4233C122.015 46.8783 122.076 47.342 122.076 47.8145C122.076 48.287 122.015 48.7551 121.893 49.2189C121.77 49.6739 121.578 50.0851 121.315 50.4526C121.053 50.8201 120.716 51.1176 120.304 51.3451C119.893 51.5639 119.403 51.6733 118.834 51.6733C118.266 51.6733 117.776 51.5639 117.364 51.3451C116.953 51.1176 116.616 50.8201 116.354 50.4526C116.091 50.0851 115.899 49.6739 115.776 49.2189C115.654 48.7551 115.593 48.287 115.593 47.8145ZM114.346 47.8145C114.346 48.4533 114.438 49.0701 114.621 49.6651C114.814 50.2514 115.098 50.772 115.474 51.227C115.851 51.682 116.319 52.0451 116.879 52.3164C117.439 52.5789 118.091 52.7101 118.834 52.7101C119.578 52.7101 120.23 52.5789 120.79 52.3164C121.35 52.0451 121.818 51.682 122.194 51.227C122.571 50.772 122.851 50.2514 123.034 49.6651C123.227 49.0701 123.323 48.4533 123.323 47.8145C123.323 47.1758 123.227 46.5633 123.034 45.977C122.851 45.382 122.571 44.857 122.194 44.402C121.818 43.947 121.35 43.5839 120.79 43.3126C120.23 43.0414 119.578 42.9058 118.834 42.9058C118.091 42.9058 117.439 43.0414 116.879 43.3126C116.319 43.5839 115.851 43.947 115.474 44.402C115.098 44.857 114.814 45.382 114.621 45.977C114.438 46.5633 114.346 47.1758 114.346 47.8145ZM45.8588 44.1789V47.1583H48.3525C49.0613 47.1583 49.5688 47.0358 49.875 46.7908C50.19 46.537 50.3475 46.1608 50.3475 45.662C50.3475 45.3295 50.295 45.067 50.19 44.8745C50.085 44.682 49.9406 44.5333 49.7569 44.4283C49.5731 44.3233 49.3588 44.2576 49.1138 44.2314C48.8775 44.1964 48.6238 44.1789 48.3525 44.1789H45.8588ZM44.6119 52.5001V43.1289H48.0113C48.2125 43.1289 48.4269 43.1333 48.6544 43.142C48.8906 43.142 49.1225 43.1551 49.35 43.1814C49.5775 43.1989 49.7875 43.2295 49.98 43.2733C50.1813 43.317 50.3519 43.3826 50.4919 43.4701C50.7981 43.6539 51.0563 43.9076 51.2663 44.2314C51.485 44.5551 51.5944 44.9533 51.5944 45.4258C51.5944 45.9245 51.4719 46.3576 51.2269 46.7251C50.9906 47.0839 50.6494 47.3508 50.2031 47.5258V47.552C50.7806 47.6745 51.2225 47.937 51.5288 48.3395C51.835 48.742 51.9881 49.232 51.9881 49.8095C51.9881 50.1508 51.9269 50.4833 51.8044 50.807C51.6819 51.1308 51.4981 51.4195 51.2531 51.6733C51.0169 51.9183 50.7194 52.1195 50.3606 52.277C50.0106 52.4258 49.6038 52.5001 49.14 52.5001H44.6119ZM45.8588 48.2083V51.4501H48.9825C49.5338 51.4501 49.9625 51.3014 50.2688 51.0039C50.5838 50.7064 50.7413 50.2951 50.7413 49.7701C50.7413 49.4639 50.6844 49.2101 50.5706 49.0089C50.4569 48.8076 50.3038 48.6501 50.1113 48.5364C49.9275 48.4139 49.7131 48.3308 49.4681 48.287C49.2231 48.2345 48.9694 48.2083 48.7069 48.2083H45.8588ZM56.2088 54.2458C56.34 54.0183 56.4713 53.7383 56.6025 53.4058L59.5556 45.7145H58.3744L56.4713 51.2664H56.445L54.4631 45.7145H53.2031L55.8938 52.4608L55.4344 53.6026C55.3556 53.8039 55.2375 53.957 55.08 54.062C54.9313 54.1758 54.7431 54.2326 54.5156 54.2326C54.4281 54.2326 54.3188 54.2151 54.1875 54.1801C54.065 54.1539 53.9556 54.1189 53.8594 54.0751V55.0989C53.9819 55.1426 54.1088 55.1733 54.24 55.1908C54.3713 55.2083 54.5025 55.217 54.6338 55.217C54.8788 55.217 55.0931 55.182 55.2769 55.112C55.4694 55.0508 55.64 54.9458 55.7888 54.797C55.9463 54.657 56.0863 54.4733 56.2088 54.2458ZM73.2534 52.5001L76.5872 43.1289H75.2878L72.584 51.2533H72.5578L69.8803 43.1289H68.5415L71.8359 52.5001H73.2534ZM78.8808 43.1289V44.4939H77.7651V43.1289H78.8808ZM77.7651 52.5001V45.7145H78.8808V52.5001H77.7651ZM85.7409 47.8933H86.8959C86.8522 47.4908 86.7472 47.1451 86.5809 46.8564C86.4147 46.5589 86.2003 46.3139 85.9378 46.1214C85.6841 45.9289 85.3866 45.7889 85.0453 45.7014C84.7128 45.6051 84.3541 45.557 83.9691 45.557C83.4353 45.557 82.9672 45.6533 82.5647 45.8458C82.1622 46.0295 81.8253 46.2876 81.5541 46.6201C81.2916 46.9439 81.0947 47.3289 80.9634 47.7751C80.8322 48.2126 80.7666 48.6851 80.7666 49.1926C80.7666 49.7001 80.8322 50.1683 80.9634 50.597C81.1034 51.017 81.3047 51.3801 81.5672 51.6864C81.8384 51.9926 82.1709 52.2289 82.5647 52.3951C82.9672 52.5614 83.4266 52.6445 83.9428 52.6445C84.8091 52.6445 85.4916 52.417 85.9903 51.962C86.4978 51.507 86.8128 50.8595 86.9353 50.0195H85.7934C85.7234 50.5445 85.5309 50.9514 85.2159 51.2401C84.9097 51.5289 84.4809 51.6733 83.9297 51.6733C83.5797 51.6733 83.2778 51.6033 83.0241 51.4633C82.7703 51.3233 82.5647 51.1395 82.4072 50.912C82.2497 50.6758 82.1316 50.4089 82.0528 50.1114C81.9828 49.8139 81.9478 49.5076 81.9478 49.1926C81.9478 48.8514 81.9828 48.5233 82.0528 48.2083C82.1228 47.8845 82.2366 47.6001 82.3941 47.3551C82.5603 47.1101 82.7791 46.9133 83.0503 46.7645C83.3216 46.6158 83.6584 46.5414 84.0609 46.5414C84.5334 46.5414 84.9097 46.6595 85.1897 46.8958C85.4697 47.132 85.6534 47.4645 85.7409 47.8933ZM90.2574 43.6801V45.7145H91.6092V46.6989H90.2574V50.912C90.2574 51.0433 90.2661 51.1483 90.2836 51.227C90.3099 51.3058 90.3536 51.367 90.4149 51.4108C90.4761 51.4545 90.5592 51.4851 90.6642 51.5026C90.778 51.5114 90.9224 51.5158 91.0974 51.5158H91.6092V52.5001H90.7561C90.4674 52.5001 90.218 52.4826 90.008 52.4476C89.8067 52.4039 89.6405 52.3295 89.5092 52.2245C89.3867 52.1195 89.2949 51.9708 89.2336 51.7783C89.1724 51.5858 89.1417 51.332 89.1417 51.017V46.6989H87.9867V45.7145H89.1417V43.6801H90.2574ZM94.1874 49.1139C94.1874 48.7026 94.2399 48.3395 94.3449 48.0245C94.4586 47.7008 94.6118 47.4295 94.8042 47.2108C94.9968 46.992 95.2199 46.8258 95.4736 46.712C95.7361 46.5983 96.0118 46.5414 96.3005 46.5414C96.5893 46.5414 96.8605 46.5983 97.1142 46.712C97.3768 46.8258 97.6043 46.992 97.7968 47.2108C97.9893 47.4295 98.138 47.7008 98.243 48.0245C98.3568 48.3395 98.4136 48.7026 98.4136 49.1139C98.4136 49.5251 98.3568 49.8926 98.243 50.2164C98.138 50.5314 97.9893 50.7983 97.7968 51.017C97.6043 51.227 97.3768 51.3889 97.1142 51.5026C96.8605 51.6164 96.5893 51.6733 96.3005 51.6733C96.0118 51.6733 95.7361 51.6164 95.4736 51.5026C95.2199 51.3889 94.9968 51.227 94.8042 51.017C94.6118 50.7983 94.4586 50.5314 94.3449 50.2164C94.2399 49.8926 94.1874 49.5251 94.1874 49.1139ZM93.0061 49.1139C93.0061 49.6126 93.0761 50.0764 93.2161 50.5051C93.3561 50.9339 93.5661 51.3101 93.8461 51.6339C94.1261 51.9489 94.4718 52.1983 94.883 52.382C95.2942 52.557 95.7668 52.6445 96.3005 52.6445C96.843 52.6445 97.3155 52.557 97.718 52.382C98.1292 52.1983 98.4749 51.9489 98.7549 51.6339C99.0349 51.3101 99.2449 50.9339 99.3849 50.5051C99.5249 50.0764 99.5949 49.6126 99.5949 49.1139C99.5949 48.6151 99.5249 48.1514 99.3849 47.7226C99.2449 47.2851 99.0349 46.9089 98.7549 46.5939C98.4749 46.2701 98.1292 46.0164 97.718 45.8326C97.3155 45.6489 96.843 45.557 96.3005 45.557C95.7668 45.557 95.2942 45.6489 94.883 45.8326C94.4718 46.0164 94.1261 46.2701 93.8461 46.5939C93.5661 46.9089 93.3561 47.2851 93.2161 47.7226C93.0761 48.1514 93.0061 48.6151 93.0061 49.1139ZM101.396 52.5001V45.7145H102.446V47.1451H102.472C102.743 46.5939 103.076 46.187 103.47 45.9245C103.863 45.662 104.362 45.5395 104.966 45.557V46.7383C104.52 46.7383 104.139 46.7995 103.824 46.922C103.509 47.0445 103.255 47.2239 103.063 47.4601C102.87 47.6964 102.73 47.9851 102.643 48.3264C102.555 48.6589 102.512 49.0439 102.512 49.4814V52.5001H101.396ZM125.144 52.5001V45.7145H126.194V47.1451H126.221C126.492 46.5939 126.824 46.187 127.218 45.9245C127.612 45.662 128.111 45.5395 128.714 45.557V46.7383C128.268 46.7383 127.888 46.7995 127.573 46.922C127.258 47.0445 127.004 47.2239 126.811 47.4601C126.619 47.6964 126.479 47.9851 126.391 48.3264C126.304 48.6589 126.26 49.0439 126.26 49.4814V52.5001H125.144ZM131.628 45.7145V43.6801H130.513V45.7145H129.358V46.6989H130.513V51.017C130.513 51.332 130.543 51.5858 130.605 51.7783C130.666 51.9708 130.758 52.1195 130.88 52.2245C131.011 52.3295 131.178 52.4039 131.379 52.4476C131.589 52.4826 131.838 52.5001 132.127 52.5001H132.98V51.5158H132.468C132.293 51.5158 132.149 51.5114 132.035 51.5026C131.93 51.4851 131.847 51.4545 131.786 51.4108C131.725 51.367 131.681 51.3058 131.655 51.227C131.637 51.1483 131.628 51.0433 131.628 50.912V46.6989H132.98V45.7145H131.628ZM135.558 48.4576H139.456C139.439 48.1951 139.378 47.9458 139.273 47.7095C139.176 47.4733 139.041 47.272 138.866 47.1058C138.7 46.9308 138.498 46.7951 138.262 46.6989C138.035 46.5939 137.781 46.5414 137.501 46.5414C137.212 46.5414 136.95 46.5939 136.713 46.6989C136.486 46.7951 136.289 46.9308 136.123 47.1058C135.956 47.2808 135.825 47.4864 135.729 47.7226C135.633 47.9501 135.576 48.1951 135.558 48.4576ZM139.43 50.3476H140.533C140.384 51.1089 140.056 51.682 139.548 52.067C139.041 52.452 138.402 52.6445 137.632 52.6445C137.09 52.6445 136.617 52.557 136.215 52.382C135.821 52.207 135.488 51.962 135.217 51.647C134.946 51.332 134.74 50.9558 134.6 50.5183C134.469 50.0808 134.395 49.6039 134.377 49.0876C134.377 48.5714 134.456 48.0989 134.613 47.6701C134.771 47.2414 134.99 46.8695 135.27 46.5545C135.558 46.2395 135.895 45.9945 136.28 45.8195C136.674 45.6445 137.103 45.557 137.566 45.557C138.17 45.557 138.669 45.6839 139.063 45.9376C139.465 46.1826 139.785 46.4976 140.021 46.8826C140.266 47.2676 140.432 47.6876 140.52 48.1426C140.616 48.5976 140.655 49.0308 140.638 49.442H135.558C135.55 49.7395 135.585 50.0239 135.663 50.2951C135.742 50.5576 135.869 50.7939 136.044 51.0039C136.219 51.2051 136.442 51.367 136.713 51.4895C136.985 51.612 137.304 51.6733 137.671 51.6733C138.144 51.6733 138.529 51.5639 138.826 51.3451C139.133 51.1264 139.334 50.7939 139.43 50.3476ZM148.173 51.9226V45.7145H147.123V46.6858H147.11C146.908 46.3095 146.628 46.0295 146.27 45.8458C145.911 45.6533 145.517 45.557 145.088 45.557C144.502 45.557 144.008 45.6708 143.605 45.8983C143.203 46.117 142.879 46.4014 142.634 46.7514C142.389 47.0926 142.214 47.4776 142.109 47.9064C142.004 48.3264 141.952 48.7376 141.952 49.1401C141.952 49.6039 142.013 50.0458 142.135 50.4658C142.267 50.877 142.459 51.2401 142.713 51.5551C142.967 51.8614 143.282 52.1064 143.658 52.2901C144.034 52.4739 144.476 52.5658 144.984 52.5658C145.421 52.5658 145.832 52.4695 146.217 52.277C146.611 52.0758 146.904 51.7651 147.097 51.3451H147.123V51.7914C147.123 52.1676 147.083 52.5133 147.005 52.8283C146.935 53.1433 146.817 53.4101 146.65 53.6289C146.484 53.8564 146.274 54.0314 146.02 54.1539C145.767 54.2851 145.456 54.3508 145.088 54.3508C144.905 54.3508 144.712 54.3289 144.511 54.2851C144.31 54.2501 144.122 54.1889 143.947 54.1014C143.78 54.0139 143.636 53.9001 143.513 53.7601C143.4 53.6201 143.338 53.4495 143.33 53.2483H142.214C142.232 53.6158 142.328 53.9264 142.503 54.1801C142.678 54.4339 142.897 54.6395 143.159 54.797C143.43 54.9545 143.728 55.0683 144.052 55.1383C144.384 55.2083 144.708 55.2433 145.023 55.2433C146.108 55.2433 146.904 54.9676 147.412 54.4164C147.919 53.8651 148.173 53.0339 148.173 51.9226ZM145.049 51.5945C144.682 51.5945 144.375 51.5201 144.13 51.3714C143.885 51.2139 143.688 51.0126 143.54 50.7676C143.391 50.5139 143.286 50.2339 143.225 49.9276C143.163 49.6214 143.133 49.3151 143.133 49.0089C143.133 48.6851 143.168 48.3745 143.238 48.077C143.317 47.7795 143.435 47.517 143.592 47.2895C143.758 47.062 143.968 46.8826 144.222 46.7514C144.476 46.6114 144.782 46.5414 145.141 46.5414C145.491 46.5414 145.788 46.6114 146.033 46.7514C146.278 46.8914 146.475 47.0795 146.624 47.3158C146.782 47.5433 146.895 47.8014 146.965 48.0901C147.035 48.3789 147.07 48.672 147.07 48.9695C147.07 49.2845 147.031 49.5995 146.952 49.9145C146.882 50.2295 146.768 50.5139 146.611 50.7676C146.453 51.0126 146.243 51.2139 145.981 51.3714C145.727 51.5201 145.417 51.5945 145.049 51.5945ZM155.591 52.6445C155.933 52.6445 156.199 52.5876 156.392 52.4739V51.6076C156.261 51.6514 156.147 51.6733 156.051 51.6733C155.876 51.6733 155.771 51.612 155.736 51.4895C155.709 51.367 155.696 51.1745 155.696 50.912V47.4208C155.696 47.027 155.622 46.7076 155.473 46.4626C155.324 46.2176 155.128 46.0295 154.883 45.8983C154.638 45.7583 154.362 45.6664 154.056 45.6226C153.758 45.5789 153.456 45.557 153.15 45.557C152.765 45.557 152.402 45.5964 152.061 45.6751C151.728 45.7539 151.431 45.8851 151.168 46.0689C150.906 46.2439 150.696 46.4758 150.538 46.7645C150.381 47.0533 150.293 47.4076 150.276 47.8276H151.391C151.418 47.3289 151.588 46.992 151.903 46.817C152.218 46.6333 152.612 46.5414 153.084 46.5414C153.259 46.5414 153.434 46.5545 153.609 46.5808C153.793 46.607 153.955 46.6595 154.095 46.7383C154.244 46.817 154.362 46.9308 154.449 47.0795C154.546 47.2283 154.594 47.4251 154.594 47.6701C154.594 47.8801 154.533 48.042 154.41 48.1558C154.288 48.2608 154.121 48.3439 153.911 48.4051C153.701 48.4576 153.456 48.5014 153.176 48.5364C152.905 48.5626 152.616 48.6064 152.31 48.6676C152.021 48.7201 151.737 48.7858 151.457 48.8645C151.186 48.9433 150.941 49.0614 150.722 49.2189C150.512 49.3676 150.341 49.5645 150.21 49.8095C150.079 50.0545 150.013 50.3695 150.013 50.7545C150.013 51.0958 150.07 51.3889 150.184 51.6339C150.306 51.8701 150.468 52.0626 150.669 52.2114C150.871 52.3601 151.107 52.4695 151.378 52.5395C151.658 52.6095 151.951 52.6445 152.258 52.6445C152.73 52.6445 153.168 52.5658 153.57 52.4083C153.981 52.242 154.34 51.9751 154.646 51.6076C154.646 51.9751 154.729 52.242 154.896 52.4083C155.071 52.5658 155.303 52.6445 155.591 52.6445ZM154.029 49.232C154.257 49.1795 154.441 49.1008 154.581 48.9958V50.1376C154.581 50.2951 154.541 50.4658 154.463 50.6495C154.384 50.8245 154.261 50.9908 154.095 51.1483C153.929 51.297 153.714 51.4239 153.452 51.5289C153.189 51.6251 152.874 51.6733 152.507 51.6733C152.332 51.6733 152.166 51.6558 152.008 51.6208C151.851 51.5858 151.711 51.5289 151.588 51.4501C151.474 51.3714 151.378 51.2708 151.299 51.1483C151.229 51.017 151.194 50.8595 151.194 50.6758C151.194 50.3958 151.256 50.177 151.378 50.0195C151.509 49.8533 151.676 49.7264 151.877 49.6389C152.078 49.5514 152.306 49.4901 152.559 49.4551C152.813 49.4114 153.063 49.3764 153.308 49.3501C153.561 49.3151 153.802 49.2758 154.029 49.232Z" fill="currentColor"/>
</svg>
