<svg viewBox="0 0 48 48" fill="none" xmlns="http://www.w3.org/2000/svg">
<path fill-rule="evenodd" clip-rule="evenodd" d="M39.6255 10.8363C41.3475 11.2973 42.7009 12.6505 43.1618 14.3725C43.9948 17.4906 43.9981 24 43.9981 24C43.9981 24 43.9981 30.5094 43.1618 33.6275C42.7009 35.3495 41.3475 36.7028 39.6255 37.1636C36.5076 38 23.999 38 23.999 38C23.999 38 11.4906 38 8.37252 37.1636C6.65052 36.7028 5.29727 35.3495 4.83631 33.6275C4 30.5094 4 24 4 24C4 24 4 17.4906 4.83631 14.3725C5.29727 12.6505 6.65052 11.2973 8.37252 10.8363C11.4906 10 23.999 10 23.999 10C23.999 10 36.5076 10 39.6255 10.8363ZM30.387 24.0006L19.9956 29.9996V18.0015L30.387 24.0006Z" fill="currentColor"/>
</svg>
